<svg xmlns="http://www.w3.org/2000/svg" xmlns:xlink="http://www.w3.org/1999/xlink" version="1.0" x="0px" y="0px" viewBox="0 0 100 100" enable-background="new 0 0 100 100" xml:space="preserve">
  <path d="M15.6657467,39.5041084c-5.8162355,0-10.530117,4.7151299-10.530117,10.5288696  c0,5.814991,4.7138815,10.5288696,10.530117,10.5288696v-0.0023689c13.0941715,0.0243225,23.691267,10.6237869,23.7143421,23.716713  c0,5.8162384,4.7115135,10.5276184,10.5276222,10.5276184c5.8138657,0,10.5277481-4.71138,10.5277481-10.5276184  C60.4268532,59.5448074,40.3947601,39.511467,15.6657467,39.5041084z M15.6657467,4.8516607  c-5.8162355,0-10.530117,4.7113867-10.530117,10.5276127c0,5.8126287,4.7138815,10.5265112,10.530117,10.5265112  c16.15028,0.0048637,30.6767139,6.5153427,41.273819,17.094101C67.5196915,53.5969849,74.028923,68.1235428,74.033783,84.2749405  c0,5.8151169,4.715126,10.5288696,10.5313644,10.5288696c5.8112488,0,10.5263748-4.7137527,10.5263748-10.5288696  C95.0817947,40.4066467,59.5365372,4.8577728,15.6657467,4.8516607z M16.067749,72.939827  c-6.0378799,0-10.9321194,4.8941116-10.9321194,10.9319916s4.8942394,10.9319916,10.9321194,10.9319916  s10.9319935-4.8941116,10.9319935-10.9319916S22.1056271,72.939827,16.067749,72.939827z"/>
</svg>